<?xml version="1.0" standalone="no"?><!DOCTYPE svg PUBLIC "-//W3C//DTD SVG 1.1//EN" "http://www.w3.org/Graphics/SVG/1.1/DTD/svg11.dtd"><svg t="1782722246526" class="icon" viewBox="0 0 1024 1024" version="1.1" xmlns="http://www.w3.org/2000/svg" p-id="3513" xmlns:xlink="http://www.w3.org/1999/xlink" width="200" height="200"><path d="M613.827817 944.000059c12.347724 10.888525 20.650652 26.530114 34.815974 35.720507 20.855451 13.525323 52.659161 12.646391 72.063947-3.404798 6.698662-5.538129 19.336519-24.285849 22.092784-32.315709l30.267711 20.104518 5.512529 10.786126-4.13013 12.868257c-24.635715 11.886925-50.986629 20.241052-78.131143 24.618649-83.933805 13.525323-176.597204 13.815457-261.751274 8.115194-30.463978-2.039465-95.709796-12.569591-122.82871-26.291181-35.191441-17.809054-10.598392-43.289568 19.976518-42.137569 1.979732 4.863996 21.418651 24.695449 26.734914 27.673579 28.697579 16.051188 60.987689 5.230929 82.158873-17.51892 2.713598-2.909865 15.035722-16.742388 16.042655-18.21012 52.556761 1.407999 104.831923-10.495992 157.183885 0z" fill="#D0CBC4" p-id="3514"></path><path d="M613.827817 944.000059c-52.351962-10.495992-104.627123 1.407999-157.183885 0 0.554666-0.810666-0.648533-3.532797 0.588799-5.444263 9.070927-14.02879 15.479455-29.013312 25.497582-42.222902 12.091724 6.195195 26.760514 2.500265 40.34557 3.41333 4.812796 0.324266 9.702393 3.916797 16.136522 4.223997 14.873589 0.699733 34.773308-8.97706 52.053295-3.891197l22.57065 43.929568z" fill="#EEECE4" p-id="3515"></path><path d="M255.12088 266.897622c2.602665-18.969586 14.18239-36.47144 16.119454-50.380763 5.811196-41.659703-0.221867-87.270336 8.908794-132.155637 4.548263-22.357317 20.223985-74.137546 43.289568-81.655406 46.199433-15.061322 96.12793 36.659173 131.208437 58.91409 35.029308-7.415461 73.09648-11.042125 108.970587-8.516261 15.249055 1.075199 47.052765 11.511458 59.793023 7.731195 33.604242-28.987712 107.946588-92.381799 145.47616-39.688505 19.592519 27.502913 32.34131 97.015396 34.534374 130.713505 1.339732 20.539718-2.696531 44.765834-0.110933 64.597286 1.706665 13.05599 11.357858 31.385577 15.078389 45.380233 14.728523 55.441026 24.465049 97.518862 7.116795 154.282553-13.610657 44.543967-45.619167 76.330611-82.372206 102.647392l4.198397 9.625593c37.418639 16.179188 82.48314 38.732772 108.381787 70.946081 18.781853 23.36425 28.313579 54.920493 19.353586 83.993538-8.063994 26.171714-32.631443 49.621297-50.918363 69.128483 14.037323 38.254905 17.279987 79.897541 14.967456 120.627112-9.890126 11.204258-43.443168 29.363178-56.191959 20.710384l-7.893328-30.395711-24.166382 4.070397c0.187733 23.628783-0.375466 54.09276-8.072527 76.543944-2.756265 8.029861-15.394122 26.77758-22.092784 32.31571-19.404786 16.051188-51.208496 16.930121-72.063947 3.404797-14.165323-9.190393-22.46825-24.823448-34.815975-35.720507l-22.57065-43.929567c-17.279987-5.085863-37.188239 4.599463-52.053295 3.891197-6.434129-0.3072-11.315192-3.89973-16.136522-4.223997-13.576523-0.913066-28.253846 2.781865-40.34557-3.413331-10.009593 13.20959-16.426655 28.194113-25.497581 42.222902-1.237332 1.911465-0.034133 4.633597-0.5888 5.444263-1.006933 1.467732-13.33759 15.300255-16.042655 18.21012-21.171184 22.758383-53.469827 33.570109-82.158873 17.51892-5.316263-2.978131-24.755182-22.809583-26.734914-27.673579-1.706665-4.189864-7.364261-29.141312-7.961594-34.355175-1.553066-13.46559 1.083733-28.390379-0.2816-42.035169l-72.362613-16.315722c-0.930133 11.972258 4.369063 32.11091-7.970128 38.425572-14.404256 7.372795-48.486364-18.116253-58.641023-30.250644-8.95146-63.283154 16.503455-131.19137 40.337037-189.601995 8.405327-20.599452 19.891185-42.393569 29.789845-62.463954-52.949295-49.868763-143.308695-162.935347-95.66713-237.175292 16.810654-26.197314 46.0117-43.246902 77.695943-39.185038l4.53973-3.524264c1.262932-19.413319 6.169595-37.674639 9.915726-56.593026l3.592531-2.517331c1.237332-3.106131 0.042667-6.681595 0.443733-9.574393z m153.156154-56.430892c20.881051 4.761597 52.838361 15.667189 72.550347 24.183449 9.38666 4.05333 23.893316 17.075187 34.918374 19.490119 35.097574 7.697061 52.915161-11.588258 81.962607-23.526383 18.03092-7.406928 41.599969-15.897588 60.458622-20.155718 2.380798-0.5376 5.606396 0.503466 8.063994 0 5.631996-1.151999 14.250656-3.729064 16.119455-4.027731 13.789857-2.210132 28.484246-5.137063 42.239969-3.942397l62.540754 11.997858c-1.075199-21.785584 1.535999-44.774367-0.0768-66.414885-2.082132-28.014913-14.07999-91.886866-30.250644-114.841515-11.426125-16.221855-22.835183-20.044785-42.410636-14.41279-27.886913 8.029861-62.694354 41.437836-86.937536 58.137558-11.647991 3.490131-18.79892-2.406398-27.80158-3.455998-30.233578-3.524264-66.210085-6.442662-96.836195-4.275197-13.789857 0.972799-35.310907 8.422394-48.170632 8.558927-15.778122 0.162133-33.348242-21.290651-46.540766-30.370111-12.433058-8.558927-57.122091-35.88264-69.734348-33.911442-24.738115 3.865597-39.022905 56.866092-42.794636 78.216476-3.174398 17.92852-6.920528 43.050635-8.123727 60.390356-0.776533 11.187192-2.252798 47.837832 0.128 56.132226 0.930133 3.225598 3.498664 5.521063 7.825061 4.275196 6.033062-1.732265 11.963725-5.05173 18.218653-6.024528 32.273043-5.00053 62.421288-3.379198 94.651664 3.967997zM613.827817 359.595154c4.33493-10.931192 6.630395-7.705594 14.762655-4.701863 34.559975 12.748791 79.180742 14.05439 113.058051-2.500265 24.977048-12.202658 47.675698-38.306105 67.771683-57.156225l2.167466-6.203729-17.032521-57.770624c-30.412778-14.882122-64.529019-19.293853-98.278328-16.938654-51.063429 3.558397-89.096468 29.243712-134.783901 46.583432-49.535964 18.79892-86.118337-19.507186-131.88257-33.484775-26.018114-7.944528-73.292746-15.522122-99.831394-12.834124-10.922659 1.109333-37.811172 7.995727-47.718365 12.740257-14.28479 6.843728-8.43946 14.438389-11.639458 24.635715-7.048528 22.46825-20.386118 35.763174-2.363732 58.419158 32.068243 22.34025 60.927955 48.264498 102.015926 53.128494 14.190923 1.681065 22.31465-4.38613 32.153576-4.275197 5.862396 0.059733 10.700792 3.95093 15.377055 3.592531 35.95944-2.739198 54.32316-32.26451 84.701805-44.236768 8.217594-3.234131 10.572792-5.922129 14.788256 4.727463-22.74985 2.850131-44.168501 27.82718-64.639953 38.135439-10.444792 5.256529-24.849048 10.018126-36.11304 14.25919h-14.10559l-2.022398 4.02773c-4.010664-0.196267-8.098127 0.290133-12.091725 0-1.322666-0.093867-2.705065-0.0256-4.02773 0l-2.594131-3.481597c-3.089064-1.288532-6.562129-0.213333-9.497593-0.546133l-2.867198-3.379198-13.252257-0.648533c-6.229329-1.365332-13.636257-1.578666-20.155719-4.02773-7.389861-2.781865-17.169054-8.063994-24.183449-12.091724-5.691729-3.259731-15.547722-8.61866-20.155718-12.091725-1.297066-0.981333-2.713598-6.843728-5.828263-8.140794l-26.402114-20.061852-3.097597 26.333847c3.012264 8.41386 14.532256 9.838926 19.217052 13.969057 8.54186 7.534928 15.138122 21.973317 20.155719 32.23891-2.073598 9.403726 1.220266 11.016525 4.02773 16.119454 1.143466 7.935994-4.25813 14.395723-4.343463 22.152517-0.145067 12.808524 16.767988 27.82718 24.490648 38.297572 28.535446 38.681572 34.790374 51.729029 83.601006 67.541284 97.510328 31.581844 231.432364 28.398913 322.235497-22.41705 45.9093-25.693848 68.104483-56.627158 85.87087-105.574323 1.228799-3.379198 3.234131-2.619731 4.02773-12.091724 0.213333-2.517331 0.238933-5.555196 0-8.063994 6.971728-3.353598 3.993597-15.581855 4.019197-22.178117 0.068267-17.894387-1.151999-32.810643-4.02773-50.380763-15.931722-2.850131-23.176516 16.059722-32.23891 24.191982-2.201598 1.971199-18.54292 15.138122-20.155718 16.119455-3.729064 2.286932-11.391992 7.714128-12.091725 8.063994-7.534928 3.686397-27.23838 9.66826-36.275173 12.091724-5.10293 1.373866-11.400525 3.942397-12.091724 4.027731-12.467191 1.510399-31.223444 0.529066-44.330635 0-0.443733-0.256-0.529066-2.713598-2.670931-3.532798-3.285331-1.262932-6.655995-0.0512-9.420793-0.494933-13.943456-2.227198-19.882652-5.657596-32.23891-12.091724z m-419.157026 157.183885c25.719448 41.463436 76.731677 97.749262 114.790315 129.049505 5.452796 4.479997 12.407458 7.944528 18.201587 12.014925l1.902932-12.211192 14.216523-3.908263c3.413331 13.397324-3.131731 27.400513-3.942397 38.365838-3.012264 40.635704-3.618131 76.211144 0 116.718848 3.575464 39.995704-3.660797 77.516743-0.256 117.136981 0.895999 10.453326 5.034663 17.885854 8.234661 26.026647 7.586128 19.310919 14.532256 29.858111 38.391438 32.273043 19.976519 2.022399 30.472511-11.946658 42.214369-24.209049 1.510399-1.578666 5.512529-2.517331 8.140794-5.836795 13.67039-17.262921 24.541849-41.924236 32.221843-62.634621l2.158932-0.1792c15.061322 5.734396 29.064512 2.892798 44.049034 4.249597 22.87785 2.065065 26.939714 0.895999 48.273032-0.256 13.943456-0.750933 28.305046 0.64 42.248502 0.418133 7.091195 17.109321 15.368522 37.990372 24.985582 53.597828 4.010664 6.510929 9.48906 8.072527 11.537058 10.641058 0.853333 1.066666 0.017067 6.843728 5.879462 12.236791 14.31039 13.15839 50.747696 18.67092 64.614353 3.839998 5.20533-5.572263 7.295995-13.866656 10.111992-20.113052 15.923188-35.327974 13.457057-76.330611 12.262391-115.037783-1.262932-41.19037-2.525865-88.089535-8.31146-128.725239-1.203199-8.46506-14.404256-60.168489-12.014925-62.540754l15.982922 0.1024 4.172797 28.100246c12.731724 1.356799 16.341321-21.802651 28.202646-6.033062 2.133332 7.893328-10.666659 20.010652-16.119455 26.188781-0.810666 0.913066-4.548263 1.194666-6.186662 3.780264l-2.039465 6.220795c6.084262 10.734925 3.114664 21.171184 4.275197 32.247443 0.443733 4.241064 3.379198 7.987194 3.87413 12.245325 0.955733 8.166394-3.532797 31.667177 6.348795 34.124775 19.925319-3.541331 36.991973-15.240522 52.386095-28.074647 3.217064-2.687998 4.38613-6.843728 5.828263-8.140794 15.018656-13.550923 29.593578-24.635715 39.671437-42.948235 15.436789-28.057579 16.554655-47.436765 0.0768-75.391944-11.417592-19.370652-37.555172-40.140771-57.105025-51.720496-7.321595-4.33493-40.166371-21.870917-45.823966-22.946116-2.278398-0.4352-4.394663-0.981333-6.664528 0-35.746107 20.625052-81.049541 53.384494-122.461777 59.153023-27.255447 3.797331-23.355716-5.853862-45.491167 12.945057-25.181848 21.384518-54.946093 18.662386-80.605807 0-2.235732-1.629865-4.317864-9.77066-10.589859-11.588258-9.301327-2.696531-23.603183 0.64-34.986641-1.279999-11.946658-2.022399-45.021834-17.996787-55.09116-25.514648-18.124787-13.533857-22.041584-29.909311-34.525841-46.079966-18.67092-24.174916-42.606902-46.839432-62.293288-72.721014-3.746131-4.92373-8.004261-14.574923-8.968527-15.436788-1.399466-1.254399-5.239463-0.1792-6.331728-1.254399-8.046927-7.987194 4.915196-27.28958 3.157331-41.67677-6.399995-52.420228-77.474077-63.342887-106.649522-22.126917-31.786643 44.893834-7.278928 96.119396 18.03092 136.925766z m532.001743 12.100257l-102.911925 32.093844c-12.748791 0.221867-23.065583 3.635197-36.147173 4.18133-5.410129 0.221867-7.671461-1.493332-5.836796 5.836796 0.895999 3.583997 5.213863 9.471993 5.708796 14.463989l4.53973 3.524264c22.766917 6.510929 74.436212-16.998388 95.752463-28.475712 8.814927-4.74453 21.640517-12.731724 29.576512-18.790387 4.87253-3.711997 11.187192-4.05333 9.326926-12.834124z m-241.800356 36.258107l-49.459164-8.985593-63.40262-19.217053c25.753581 31.837843 65.919952 58.069291 108.69752 52.275162l4.164264-24.072516z m22.655983 0.512c-39.987171 35.336507 28.475712 74.333812 58.018091 37.862372 12.407458-15.317322 8.601594-26.495981-6.630395-37.870906h-51.387696zM251.093149 770.696719c9.77066 2.739198 7.944528 10.385059 8.132261 18.10772 0.443733 17.51892-7.509328 35.609574-4.087464 54.408494l68.497017 16.145054c-3.609597-15.368522 6.655995-32.409576 6.485328-46.344499-0.1024-7.978661-5.819729-18.781853-6.647462-28.040513-3.217064-35.771707 2.568531-76.373277 0.366934-112.733784-11.340792-6.655995-22.23785-14.122656-32.44371-22.459717-6.050129-4.940796-19.976519-26.75198-30.327444-16.221854-12.706124 34.850108-29.593578 68.55675-41.361037 103.731124-11.767458 35.182908-26.171714 83.362072-21.102918 120.140711 1.211732 8.780794 20.087452 21.171184 28.330646 24.106649 4.241064 1.510399 6.971728-1.271466 7.833595-4.25813 3.131731-10.871459-1.075199-34.363708 0.298666-48.068231 1.971199-19.643719 10.999459-40.797837 16.034122-58.530091z m540.074271 112.844717l35.85704-18.534386c0.947199-21.683184-3.959464-43.101835-7.517861-64.213286-0.981333-5.811196-2.739198-38.220772-10.205859-38.143972-17.919987 15.018656-38.263439 32.332776-62.463954 24.166382l4.02773 64.486353 23.978649-4.232531c4.377597-4.266664-7.799461-43.741835 8.243194-48.162098 8.59306 27.946646 9.019727 55.543426 8.072527 84.633538z" fill="#4D2C23" p-id="3516"></path><path d="M251.093149 278.989346c0.529066-2.670931-0.895999-6.502395 0.4608-9.557326l3.566931-2.534398c-0.401066 2.892798 0.793599 6.468262-0.443733 9.574393l-3.592531 2.517331z" fill="#4C342F" p-id="3517"></path><path d="M492.919105 617.540565c-73.190346 17.945587-101.973259 83.720472-92.629265 155.101753 4.79573 36.684773 36.72744 68.053283 71.458081 77.670343 37.529572 10.385059 81.74074 10.342392 118.928979 0 78.813809-21.913584 92.646332-114.576983 56.183426-179.148669-15.445322-27.357847-42.760502-46.463966-73.32688-53.623427 22.13545-18.79892 18.244253-9.147727 45.491167-12.945057 41.412236-5.777062 86.71567-38.536505 122.461777-59.153024 2.261332-0.972799 4.377597-0.426666 6.664528 0 5.657596 1.083733 38.502372 18.611186 45.823966 22.946117 19.549852 11.579725 45.687433 32.349843 57.105025 51.720495 16.477855 27.955179 15.359989 47.334365-0.0768 75.391945-10.077859 18.321053-24.652782 29.397312-39.671437 42.948235-6.365862-19.737586-30.182378-33.032509-46.412766-44.262367-5.734396-3.967997-7.705594-10.811725-18.073587-8.132261 5.444263-6.178129 18.244253-18.295453 16.119455-26.188781-11.861325-15.769588-15.470922 7.389861-28.202646 6.033062l-4.172797-28.100246-15.982922-0.1024c-2.389332 2.363732 10.811725 54.075694 12.014925 62.540754 5.785596 40.635704 7.039995 87.534869 8.31146 128.725239 1.186132 38.715705 3.660797 79.709808-12.262391 115.037783 1.740799-11.195725-14.515189-15.112522-22.229317-16.042655-19.071986-2.312532-46.028766 4.20693-58.37649 20.078918-2.047998-2.568531-7.526394-4.13013-11.537058-10.641058-9.61706-15.607455-17.894387-36.488507-24.985582-53.597828-13.934923 0.221867-28.296513-1.169066-42.248502-0.418133-21.333318 1.151999-25.395181 2.321065-48.273032 0.256-14.984522-1.356799-28.987712 1.493332-44.049034-4.249597l-2.158932 0.1792c-7.688528 20.710385-18.559986 45.380233-32.221843 62.634621-2.628265 3.310931-6.621862 4.249597-8.140794 5.836795-12.680524-20.036252-45.8069-26.845847-66.781818-20.420251-7.534928 2.312532-14.634656-0.0256-13.823989 12.356257-3.199998-8.140794-7.330128-15.573322-8.234661-26.026647-3.404798-39.620238 3.831464-77.141277 0.256-117.136981-3.626664-40.507704-3.012264-76.074611 0-116.718848 0.810666-10.965325 7.355728-24.968515 3.942397-38.365838l-14.216523 3.908263-1.902932 12.211192c-5.794129-4.070397-12.748791-7.534928-18.201587-12.014925-38.058639-31.300244-89.070868-87.577536-114.790315-129.049505 38.681572-7.185061 75.741811-25.941314 100.761526-56.422359 19.694919 25.881581 43.630901 48.546098 62.293287 72.721013 12.484258 16.170655 16.401055 32.546109 34.525842 46.079967 10.077859 7.517861 43.144502 23.492249 55.091159 25.514648 11.374925 1.919999 25.685314-1.416532 34.986641 1.279999 6.263462 1.817599 8.345594 9.966926 10.589859 11.588258z" fill="#F5BF7B" p-id="3518"></path><path d="M517.094021 323.31998c47.010099-5.887996 60.458622 17.390921 96.725262 36.275174 12.364791 6.434129 18.303987 9.864526 32.23891 12.091724l2.517331 3.583998c3.148798 1.049599 6.399995 0.315733 9.574393 0.443733 7.620261 4.445863 6.519462 3.532797 16.119455 4.02773l-20.164252 4.027731c-4.46293 34.483175 18.397853 66.670884 51.259696 75.716211 12.706124 3.498664 34.773308 6.707195 47.496499 4.898129 3.157331-0.452266 19.967985-7.381328 21.435717-8.79786 1.467732-1.416532 1.843199-6.306129 4.56533-9.403726 14.199456-16.145055 19.242653-26.820247 24.311449-48.358365l0.068267-42.248502c6.237862 8.66986 11.127459 17.92852 12.091724 28.211179 0.238933 2.508798 0.213333 5.546663 0 8.063994l-3.583997 2.500265-0.443733 9.582926c-17.766387 48.947164-39.961571 79.880475-85.870871 105.574323-90.803133 50.815963-224.725169 53.998894-322.235497 22.41705-48.810631-15.803722-55.06556-28.859712-83.601005-67.541284 7.970127-8.183461 23.569049-2.756265 34.193042-4.095997 28.620779-3.609597 62.839421-41.599969 66.500217-70.340215l-20.087451-10.197326c8.934393 3.234131 13.41439-3.012264 16.119454-4.02773 11.272525-4.241064 25.668248-9.00266 36.113041-14.259189 20.471452-10.299726 41.890103-35.285307 64.639952-38.135439z m-5.35893 16.802122c-17.90292 3.857064-22.28905 19.618119-10.845858 33.672508 15.735455 19.319452 47.505032 23.099716 64.725286 4.087464 31.633043-34.918374-27.13598-43.519968-53.879428-37.759972z m-45.004767 47.692765c-18.150387 5.521063 7.338661 34.269842 16.622922 39.78237 20.386118 12.117324 77.12421 12.467191 98.303927 2.602665 14.711456-6.852262 22.451184-17.766387 28.100247-32.332776-19.157319-18.56852-16.913054 7.227728-26.606914 13.67039-14.114123 9.395193-21.247984 6.741328-35.754641 8.558927-15.564789 1.954132-11.852791 2.662398-28.398912 0.042666-12.091724-1.911465-20.027719-0.315733-31.65011-8.64426-7.961594-5.700262-12.049058-26.299714-20.616519-23.697049z" fill="#F9EEDC" p-id="3519"></path><path d="M492.919105 617.540565c25.659715 18.662386 55.423959 21.384518 80.605808 0 30.574911 7.167995 57.881558 26.274114 73.326879 53.623427 36.462907 64.571686 22.630383 157.226551-56.183425 179.148669-37.196773 10.342392-81.399407 10.385059-118.92898 0-34.730641-9.61706-66.653818-40.98557-71.458081-77.670343-9.33546-71.381281 19.447452-137.164699 92.629266-155.101753z" fill="#F9EFDD" p-id="3520"></path><path d="M517.094021 323.31998c-4.215464-10.641059-6.570662-7.961594-14.788256-4.727463-30.387178 11.972258-48.750898 41.49757-84.701805 44.236768-4.676263 0.3584-9.51466-3.532797-15.377055-3.592531-9.838926-0.1024-17.962653 5.956262-32.153576 4.275197-41.08797-4.87253-69.939149-30.788244-102.015926-53.128494-18.022387-22.655983-4.684797-35.950907 2.363732-58.419158 3.199998-10.197326-2.645331-17.791987 11.639458-24.635715 9.907193-4.74453 36.795706-11.630925 47.718365-12.740257 26.538647-2.687998 73.821813 4.889596 99.831394 12.834124 45.764233 13.97759 82.346606 52.275162 131.88257 33.484775 45.687433-17.339721 83.720472-43.025035 134.783901-46.583432 33.740775-2.346665 67.86555 2.056532 98.278328 16.938654l17.032521 57.770624-2.167466 6.203729c-20.095985 18.858653-42.794635 44.9621-67.771683 57.156225-33.868775 16.546121-78.498076 15.249055-113.058051 2.500265-8.132261-3.003731-10.427726-6.229329-14.762655 4.701863-36.26664-18.884253-49.723697-42.154636-96.725263-36.275174z m112.85325-60.450089c-1.160532 0.657066-4.863996-0.349866-7.970127 1.945599-44.347701 32.853309-6.937595 94.224998 45.388767 77.858076 2.193065-0.682666 2.542931-3.089064 2.884264-3.234131 14.771189-5.973329 19.797319-5.896529 27.374913-23.005849 13.218124-29.858111-11.383458-62.293288-42.248502-64.895953-9.66826-0.810666-18.355187 7.304528-25.429315 11.323725z m-249.881416 8.055461c-3.839997 4.292264-9.403726 5.572263-11.417592 14.779723-5.546663 25.386648 4.019197 44.740234 27.54558 53.73436 0.3328 0.128 0.375466 3.387731 5.794129 4.113064 38.161039 5.111463 69.068749-16.989854 58.68369-56.499159-6.280529-1.143466-3.788797 3.865597-4.019197 8.055461l-8.063994-4.02773c1.160532-3.438931-1.544532-10.589859 3.959464-14.13119-4.69333-6.937595-8.362661-2.926931-16.051188-6.015995-1.988265-0.802133-11.383458-7.901861-12.091725-8.063995l2.867198-4.855463c-22.894917-8.635727-32.639976-3.362131-47.206365 12.910924z" fill="#4C342F" p-id="3521"></path><path d="M194.670791 516.779039c-25.309848-40.814903-49.817563-92.031933-18.030921-136.925767 29.183979-41.21597 100.25806-30.293311 106.649522 22.126917 1.757865 14.387189-11.212792 33.689575-3.157331 41.67677 1.083733 1.075199 4.92373 0 6.331729 1.254399 0.964266 0.861866 5.222396 10.513059 8.968527 15.436789-25.019715 30.489578-62.079954 49.237297-100.761526 56.422358z" fill="#F7EEDF" p-id="3522"></path><path d="M291.396053 649.779474c10.205859 8.328527 21.094385 15.795188 32.44371 22.459717 2.201598 36.351973-3.583997 76.962077-0.366934 112.733784 0.836266 9.25866 6.553595 20.070385 6.647462 28.040513 0.170667 13.934923-10.094926 30.975977-6.485328 46.344499l-68.497017-16.145054c-3.421864-18.79892 4.531197-36.889573 4.087464-54.408494-0.196267-7.722661 1.638399-15.359989-8.132261-18.10772 0.657066-2.303998-0.802133-6.357329 0.699733-9.215993l39.603171-111.701252z" fill="#C33023" p-id="3523"></path><path d="M291.396053 649.779474l-39.603171 111.701252c-1.501866 2.850131-0.042667 6.911995-0.699733 9.215993-5.034663 17.732254-14.05439 38.886371-16.034121 58.530091-1.373866 13.69599 2.833065 37.196773-0.298667 48.068231-0.861866 2.986664-3.583997 5.768529-7.833594 4.25813-8.243194-2.935465-27.118913-15.325855-28.330646-24.106649-5.060263-36.787173 9.33546-84.957804 21.102918-120.140712 11.767458-35.174374 28.654912-68.881016 41.361036-103.731124 10.350926-10.538659 24.268782 11.281058 30.327445 16.221855z" fill="#D2372A" p-id="3524"></path><path d="M791.16742 883.541436c0.947199-29.090112 0.512-56.686892-8.072528-84.633538-16.042655 4.428797-3.87413 43.895434-8.243194 48.162098l-23.978649 4.232531-4.02773-64.486353c24.200516 8.157861 44.543967-9.147727 62.463954-24.166382 7.466661-0.085333 9.224527 32.324243 10.205859 38.143972 3.558397 21.102918 8.473594 42.530102 7.517862 64.213286l-35.857041 18.534386z" fill="#CE3727" p-id="3525"></path><path d="M803.259144 355.567424l-0.068266 42.248502c-5.068796 21.546651-10.111993 32.21331-24.311449 48.358364-2.722131 3.097598-3.097598 7.987194-4.56533 9.403727-1.476266 1.416532-18.28692 8.354127-21.435718 8.79786-12.723191 1.809065-34.790374-1.399466-47.496498-4.89813-32.861843-9.045327-55.722626-41.224503-51.259696-75.716211l20.164252-4.02773c4.010664 0.2048 8.072527-0.162133 12.091724 0-3.473064 7.756794-11.426125-1.450666-12.134391 9.924259-2.773331 44.902367 47.266099 69.555149 86.007404 53.870894 9.07946-3.677864 24.217582-24.772249 26.265581-34.201575l-7.313062-51.464495-16.238921-6.340263c1.604265-0.981333 17.95412-14.148256 20.155718-16.119454 6.220795 8.789327 13.03039 10.248526 20.155719 20.155718z" fill="#F8E2CB" p-id="3526"></path><path d="M750.855983 359.595154l20.300785 26.103447c-4.966396 10.564259-2.790398 21.555184-8.77226 31.77811-20.693318 35.362107-88.669802-0.034133-67.959417-37.717305-2.662398-0.085333-5.393063 0.093867-8.063994-0.008534-4.019197-0.162133-8.081061 0.2048-12.091725 0-9.599993-0.494933-8.499194 0.418133-16.119455-4.02773 13.115724 0.529066 31.871977 1.510399 44.330635 0l9.267193-0.588799 2.815998-3.447465c9.036793-2.423465 28.731712-8.405327 36.275173-12.091724z" fill="#F6BEA2" p-id="3527"></path><path d="M811.314605 738.449276c-1.442132 1.297066-2.611198 5.461329-5.828262 8.140794-15.394122 12.834124-32.460776 24.541849-52.386095 28.074646-9.881593-2.457598-5.401596-25.958381-6.348796-34.124775-0.494933-4.25813-3.430397-8.004261-3.87413-12.245324-1.160532-11.076259 1.809065-21.512518-4.275197-32.247443l2.039465-6.220796c1.638399-2.585598 5.375996-2.867198 6.186662-3.780264 10.367992-2.679465 12.330658 4.15573 18.073587 8.132261 16.230388 11.229858 40.046904 24.524782 46.412766 44.262368z" fill="#F8EEDD" p-id="3528"></path><path d="M762.947707 351.53116l16.238922 6.340262 7.313061 51.464495c-2.047998 9.429326-17.186121 30.523711-26.265581 34.201575-38.732772 15.684255-88.772202-8.97706-86.007403-53.870893 0.699733-11.374925 8.652794-2.167465 12.134391-9.92426 2.670931 0.110933 5.393063-0.0768 8.063994 0.008533-20.710385 37.683172 47.266099 73.079413 67.959417 37.717306 5.981862-10.222926 3.805864-21.213851 8.77226-31.77811l-20.300785-26.103447c0.699733-0.341333 8.362661-5.777062 12.091724-8.063995z" fill="#F8D4BA" p-id="3529"></path><path d="M507.528161 565.649403h51.387696c15.223456 11.366392 19.037853 22.54505 6.630395 37.862372-29.542378 36.47144-98.005261-2.534398-58.018091-37.862372z" fill="#CD3223" p-id="3530"></path><path d="M335.73522 367.659148l-18.329586 7.867728c-14.958922 27.400513 1.442132 52.940761 32.435176 48.537564 21.503984-3.054931 27.844246-26.794647 18.13332-44.305034 5.350396-0.093867 10.769059 0.093867 16.119455-0.008534 1.331199-0.0256 2.713598-0.093867 4.02773 0 2.918398 6.485329 9.847459 8.610127 7.637328 17.501854-0.520533 2.099198-11.400525 25.062382-12.398924 26.103448-1.348266 1.399466-6.246395 1.937065-9.41226 4.56533-4.445863 3.694931-6.946128 9.25866-12.714657 11.588258-18.013853 7.295995-31.21491 1.365332-49.407964 0.418133-0.3584-7.074128-5.631996-12.219724-7.662928-18.534386-2.235732-6.971728 0.059733-8.806394-4.710396-17.467721-2.807465-5.10293-6.101329-6.724262-4.027731-16.119455 0.042667-0.2048 2.457598 1.151999 3.396265-2.534398 3.037864-11.955191 3.336531-19.720519 12.72319-29.713045 7.014395 4.02773 16.793588 9.30986 24.183449 12.091725z" fill="#F8CAAF" p-id="3531"></path><path d="M400.21304 379.750872l20.087452 10.197326c-3.660797 28.740246-37.879439 66.730618-66.500218 70.340215-10.623992 1.339732-26.214381-4.087464-34.193042 4.095997-7.722661-10.470392-24.635715-25.489048-24.490648-38.297572 0.085333-7.765328 5.478396-14.225056 4.343463-22.152517 4.761597 8.66986 2.466132 10.495992 4.710397 17.467721 2.022399 6.314662 7.304528 11.451725 7.662927 18.534386 18.193053 0.938666 31.39411 6.877862 49.407964-0.418133 5.768529-2.338132 8.260261-7.893328 12.714657-11.588258 3.165864-2.628265 8.063994-3.165864 9.41226-4.56533 1.006933-1.041066 11.878391-24.004249 12.398924-26.103447 2.210132-8.891727-4.71893-11.025059-7.637327-17.501854 3.993597 0.290133 8.081061-0.196267 12.091724 0z" fill="#F8DDC6" p-id="3532"></path><path d="M726.672534 528.879296c1.868799 8.780794-4.454397 9.113593-9.326927 12.834124-7.935994 6.050129-20.761585 14.045856-29.576511 18.790387-21.324784 11.477325-72.99408 34.986641-95.752463 28.475712l-4.53973-3.524264c-0.494933-4.991996-4.812796-10.879992-5.708796-14.463989-1.826132-7.330128 0.426666-5.606396 5.836795-5.836796 13.08159-0.546133 23.398383-3.959464 36.147174-4.18133l102.911924-32.093844z" fill="#CB3025" p-id="3533"></path><path d="M428.432752 948.027789c-11.741858 12.270924-22.23785 26.231447-42.214369 24.209049-23.859183-2.414932-30.805311-12.962124-38.391438-32.273043-0.810666-12.381858 6.297595-10.052259 13.82399-12.356258 20.974918-6.434129 54.101294 0.384 66.781817 20.420252z" fill="#F5EDDC" p-id="3534"></path><path d="M722.644803 944.000059c-2.815998 6.246395-4.906663 14.549323-10.111992 20.113052-13.858123 14.830922-50.29543 9.318393-64.614353-3.839998-5.870929-5.393063-5.034663-11.178658-5.879462-12.236791 12.356258-15.871988 39.313038-22.382917 58.37649-20.078918 7.714128 0.938666 23.970116 4.84693 22.229317 16.042655z" fill="#F6EFDF" p-id="3535"></path><path d="M355.882406 371.686878c3.601064 0.793599 7.167995 2.995198 16.119455 4.027731 2.935465 0.341333 6.408529-0.742399 9.497593 0.546133l2.594131 3.481597c-5.358929 0.1024-10.769059-0.085333-16.119455 0.008533 9.71946 17.51892 3.370664 41.250103-18.13332 44.305035-30.993044 4.403197-47.394099-21.137051-32.435176-48.537565l18.329586-7.867727c6.519462 2.449065 13.917856 2.662398 20.155719 4.02773z" fill="#F5B99B" p-id="3536"></path><path d="M484.872178 565.137403l-4.164264 24.072516c-42.786102 5.794129-82.952473-20.437318-108.69752-52.275162l63.40262 19.217053 49.459164 8.985593z" fill="#C73126" p-id="3537"></path><path d="M783.103426 335.411705c9.062393-8.132261 16.307188-27.050647 32.238909-24.191982 2.875731 17.57012 4.095997 32.477843 4.027731 50.380763-0.0256 6.604795 2.943998 18.833053-4.019197 22.178117-0.964266-10.291192-5.853862-19.541319-12.091725-28.211179-7.125328-9.907193-13.934923-11.357858-20.155718-20.155719z" fill="#ECBA75" p-id="3538"></path><path d="M291.396053 343.475699c4.607997 3.473064 14.463989 8.831994 20.155719 12.091725-9.38666 9.992526-9.685326 17.757854-12.723191 29.713044-0.938666 3.677864-3.353598 2.329598-3.396264 2.534399-5.017596-10.265592-11.605325-24.712515-20.155719-32.23891 2.773331-6.587729 8.507727-12.757324 16.119455-12.091725z" fill="#F6DFCD" p-id="3539"></path><path d="M275.276598 355.567424c-4.684797-4.13013-16.204788-5.555196-19.217052-13.969057l3.097597-26.333847 26.402114 20.061852c3.123198 1.305599 4.531197 7.167995 5.828263 8.140794-7.611728-0.6656-13.346124 5.503996-16.119455 12.091724z" fill="#EDBD78" p-id="3540"></path><path d="M372.001861 375.714609c-8.95146-1.032533-12.518391-3.242664-16.119455-4.027731l13.252257 0.648533 2.867198 3.379198z" fill="#4C342F" p-id="3541"></path><path d="M416.341028 375.714609c-2.705065 1.023999-7.185061 7.261861-16.119455 4.02773l2.022399-4.019197h14.105589z" fill="#F8CAAF" p-id="3542"></path><path d="M811.314605 403.925788l0.443733-9.582926 3.583997-2.500265c-0.793599 9.471993-2.807465 8.712527-4.02773 12.091724z" fill="#F8E2CB" p-id="3543"></path><path d="M714.589343 371.686878l-2.815998 3.447465-9.267194 0.588799c0.691199-0.085333 6.988795-2.662398 12.091725-4.02773zM658.158451 375.714609c-3.174398-0.128-6.425595 0.605866-9.574393-0.443733l-2.517332-3.583998c2.764798 0.443733 6.135462-0.767999 9.420793 0.494933 2.141865 0.819199 2.227198 3.276798 2.670932 3.532798z" fill="#4C342F" p-id="3544"></path><path d="M408.277034 210.46673c-32.230376-7.347195-62.387154-8.968527-94.651664-3.967997-6.246395 0.964266-12.185591 4.28373-18.218653 6.024529-4.33493 1.245866-6.903462-1.058133-7.825061-4.275197-2.389332-8.294394-0.904533-44.945034-0.128-56.132226 1.203199-17.348254 4.94933-42.461836 8.123727-60.390355 3.771731-21.341851 18.05652-74.342345 42.794636-78.216476 12.612257-1.971199 57.301291 25.361048 69.734348 33.911441 13.201057 9.07946 30.762644 30.532244 46.540766 30.370112 12.859724-0.136533 34.380775-7.586128 48.170632-8.558928 30.626111-2.158932 66.602618 0.750933 96.836195 4.275197 9.00266 1.049599 16.153588 6.946128 27.80158 3.455998 24.243182-16.699721 59.059157-50.107697 86.937536-58.137558 19.575452-5.640529 30.975977-1.817599 42.410636 14.41279 16.170655 22.95465 28.168513 86.826603 30.250644 114.841516 1.612799 21.640517-0.998399 44.629301 0.0768 66.414884l-62.540754-11.997858c-13.755723-1.194666-28.450112 1.723732-42.239969 3.942398l-13.678923 0.443733-2.440532 3.59253c-2.449065 0.503466-5.683196-0.5376-8.063994 0 0.998399-8.157861-5.341863-12.134391-11.929591-14.259189-20.479985-6.621862-43.571168 5.555196-53.256495 23.637316-4.113064 7.679994-7.398395 12.177058 4.727464 10.777592-29.047445 11.938125-46.865032 31.223444-81.962607 23.526383-11.016525-2.414932-25.531715-15.436789-34.918374-19.490119-0.785066-34.380775-53.137028-57.548758-72.550347-24.183449z m-8.072527-108.859654c0.349866-4.53973 0.6144-8.004261-1.877332-12.177057-1.331199-2.218665-38.195172-30.754111-40.968504-31.564777-4.94933-1.450666-13.51679-1.655465-17.80052 1.262932-12.134391 13.192524-9.804793 25.591448-11.955191 40.439437-0.759466 5.265063-3.669331 9.59146-4.138664 16.017055-0.998399 13.72159 1.058133 28.612246 0.187733 42.495969 24.439449-20.061852 45.073034-47.402632 76.561011-56.465025z m350.651476 56.465026c3.268264-17.57012-5.452796-95.368463-22.485317-100.46286-15.539189-4.650663-51.635162 24.499182-54.015961 41.787703 1.049599 4.070397 31.735443 21.017585 38.289039 26.36798 9.10506 7.432528 16.947188 18.628253 26.120514 26.274114 4.07893 3.396264 5.171196 7.714128 12.083191 6.041596z" fill="#F7C07D" p-id="3545"></path><path d="M480.827381 234.650179c-19.703452-8.51626-51.660762-19.421852-72.550347-24.183449 19.413319-33.365309 71.756747-10.197326 72.550347 24.183449z" fill="#F4EFE1" p-id="3546"></path><path d="M658.158451 210.46673c-18.858653 4.25813-42.427702 12.740257-60.458623 20.155718-12.125858 1.399466-8.840527-3.097598-4.727463-10.777592 9.685326-18.090653 32.776509-30.259178 53.256494-23.637316 6.587729 2.133332 12.927991 6.101329 11.929592 14.25919z" fill="#F4EEDF" p-id="3547"></path><path d="M682.3419 206.439c-1.868799 0.298666-10.487459 2.875731-16.119455 4.02773l2.440531-3.592531 13.678924-0.443733z" fill="#4C342F" p-id="3548"></path><path d="M750.855983 158.072102c-6.911995 1.672532-8.012794-2.645331-12.083191-6.041596-9.173327-7.637328-17.015454-18.833053-26.120515-26.274114-6.553595-5.350396-37.239439-22.297584-38.289038-26.367981 2.380798-17.288521 38.476772-46.438366 54.01596-41.787702 17.032521 5.094396 25.753581 82.892739 22.485317 100.462859zM400.204507 101.607076c-31.479444 9.062393-52.121562 36.411707-76.561011 56.465026 0.878933-13.883723-1.186132-28.774379-0.187733-42.495969 0.469333-6.425595 3.370664-10.751992 4.138663-16.017055 2.150398-14.847989-0.187733-27.246913 11.955192-40.439437 4.28373-2.918398 12.851191-2.705065 17.80052-1.262932 2.773331 0.810666 39.637304 29.337578 40.968503 31.564776 2.491732 4.172797 2.227198 7.637328 1.877332 12.177058z" fill="#F8C1B6" p-id="3549"></path><path d="M511.735091 340.122102c26.75198-5.759996 85.521004 2.841598 53.879428 37.759972-17.220254 19.003719-48.989831 15.223456-64.725286-4.087464-11.451725-14.05439-7.057061-29.815445 10.845858-33.672508z" fill="#512E27" p-id="3550"></path><path d="M466.730324 387.814867c8.56746-2.602665 12.654924 17.988253 20.616519 23.697049 11.622391 8.328527 19.558386 6.724262 31.65011 8.64426 16.546121 2.619731 12.825591 1.911465 28.398912-0.042666 14.515189-1.826132 21.640517 0.836266 35.754641-8.558928 9.685326-6.451195 7.449595-32.23891 26.606914-13.67039-5.649063 14.566389-13.38879 25.480515-28.100247 32.332777-21.179718 9.864526-77.926343 9.506126-98.303927-2.602665-9.28426-5.521063-34.773308-34.269842-16.622922-39.782371z" fill="#4F2D25" p-id="3551"></path><path d="M424.396489 262.869891c0.708266 0.162133 10.103459 7.261861 12.091724 8.063995-29.354645 12.962124 4.650663 42.163169 12.091725 20.155718l8.063994 4.027731c-0.733866 13.252257-0.708266 24.268782-12.074658 34.278374-11.801591 10.385059-30.404244 13.05599-44.347701 6.024529-20.761585-10.461859-25.924248-36.462907-16.119455-56.422358 5.512529-11.221325 27.972246-18.909853 40.302904-16.119455z" fill="#4F3029" p-id="3552"></path><path d="M670.250175 339.439435l-4.02773-4.02773c20.667718-10.478926 25.309848-31.010111 18.295453-52.556761-6.263462-19.234119-32.895976-22.331717-50.542896-19.993586h-4.027731c7.074128-4.019197 15.761055-12.134391 25.429315-11.323725 30.865044 2.594131 55.458093 35.037841 42.248502 64.895953-7.577594 17.109321-12.595191 17.032521-27.374913 23.005849z" fill="#E7CA9F" p-id="3553"></path><path d="M629.947271 262.869891h4.027731l-7.961594 4.300797 3.933863 7.790928c-10.120526-0.964266-12.057591 9.00266-16.119454 16.119455-0.2304 0.4096-2.892798 0.418133-3.524265 2.491731-9.43786 30.643178 29.175445 55.406893 55.927426 41.838903l4.02773 4.02773c-0.341333 0.136533-0.691199 2.542931-2.884264 3.234131-52.326362 16.358388-89.736468-45.004767-45.388767-77.858076 3.106131-2.303998 6.809595-1.288532 7.970128-1.945599z" fill="#CEB18E" p-id="3554"></path><path d="M384.093585 278.989346c-9.804793 19.959452-4.633597 45.9605 16.119455 56.422359l-4.027731 4.02773c-23.517849-8.994127-33.092242-28.347713-27.545579-53.73436 2.013865-9.215993 7.577594-10.487459 11.417591-14.779723l0.733866 5.35893 3.293865 2.705064z" fill="#ECC787" p-id="3555"></path><path d="M448.579938 291.081071c-7.441061 22.007451-41.44637-7.193595-12.091725-20.155719 7.688528 3.097598 11.357858-0.913066 16.051188 6.015996-5.512529 3.541331-2.798931 10.692259-3.959463 14.131189z" fill="#ECE5DC" p-id="3556"></path><path d="M396.185309 339.439435l4.027731-4.02773c13.943456 7.031462 32.546109 4.36053 44.347701-6.024529 11.366392-10.001059 11.340792-21.017585 12.074657-34.278375 0.2304-4.189864-2.261332-9.198927 4.019198-8.055461 10.385059 39.509304-20.522652 61.610621-58.683691 56.499159-5.418663-0.725333-5.461329-3.985064-5.794129-4.113064z" fill="#C2A888" p-id="3557"></path><path d="M380.065855 270.925352c14.566389-16.281588 24.311449-21.555184 47.206365-12.910924l-2.867198 4.855463c-12.339191-2.790398-34.798908 4.89813-40.302904 16.119455l-3.293864-2.705064-0.733866-5.35893z" fill="#EED4B2" p-id="3558"></path><path d="M666.222445 335.411705c-26.75198 13.56799-65.356752-11.195725-55.927426-41.838903 0.64-2.073598 3.293864-2.082132 3.524264-2.491731 11.093325 14.822389 28.791446 7.142395 28.177046-10.018126l-12.057591-6.101329-3.933864-7.790928 7.961594-4.300797c17.64692-2.338132 44.279434 0.750933 50.542897 19.993586 7.014395 21.546651 2.372265 42.077836-18.295454 52.556761z" fill="#4F3029" p-id="3559"></path><path d="M629.947271 274.953083l12.057592 6.101328c0.6144 17.160521-17.083721 24.840515-28.177046 10.018126 4.061864-7.116795 5.998929-17.083721 16.119454-16.119454z" fill="#EBE5D8" p-id="3560"></path></svg>